HIERARCHY
ROOT Hips
{
  OFFSET -33.2506 35.5387 35.0159
  CHANNELS 6 Xposition Yposition Zposition Zrotation Xrotation Yrotation
  JOINT Spine
  {
    OFFSET 0 0 9.09008
    CHANNELS 6 Xposition Yposition Zposition Zrotation Xrotation Yrotation
    JOINT Head
    {
      OFFSET 0 0 15.9751
      CHANNELS 6 Xposition Yposition Zposition Zrotation Xrotation Yrotation
      End Site
      {
        OFFSET 0 0 4.52755
      }
    }
    JOINT LeftShoulder
    {
      OFFSET 0 0 12.5984
      CHANNELS 6 Xposition Yposition Zposition Zrotation Xrotation Yrotation
      JOINT LeftArm
      {
        OFFSET -7.874 0 0
        CHANNELS 6 Xposition Yposition Zposition Zrotation Xrotation Yrotation
        JOINT LeftForeArm
        {
          OFFSET -12.9921 0 0
          CHANNELS 6 Xposition Yposition Zposition Zrotation Xrotation Yrotation
          JOINT LeftHand
          {
            OFFSET -10.3081 0 0
            CHANNELS 6 Xposition Yposition Zposition Zrotation Xrotation Yrotation
            JOINT LeftHandPinky1
            {
              OFFSET -2.81979 -0.13815 0
              CHANNELS 6 Xposition Yposition Zposition Zrotation Xrotation Yrotation
              End Site
              {
                OFFSET -1.9685 0 0
              }
            }
            JOINT LeftHandIndex1
            {
              OFFSET -4.14743 0.13815 0
              CHANNELS 6 Xposition Yposition Zposition Zrotation Xrotation Yrotation
              End Site
              {
                OFFSET -2.3622 0 0
              }
            }
          }
        }
      }
    }
    JOINT RightShoulder
    {
      OFFSET 0 0 12.5984
      CHANNELS 6 Xposition Yposition Zposition Zrotation Xrotation Yrotation
      JOINT RightArm
      {
        OFFSET 7.874 0 0
        CHANNELS 6 Xposition Yposition Zposition Zrotation Xrotation Yrotation
        JOINT RightForeArm
        {
          OFFSET 12.9921 0 0
          CHANNELS 6 Xposition Yposition Zposition Zrotation Xrotation Yrotation
          JOINT RightHand
          {
            OFFSET 10.3081 0 0
            CHANNELS 6 Xposition Yposition Zposition Zrotation Xrotation Yrotation
            JOINT RightHandPinky1
            {
              OFFSET 2.94832 -0.17528 0
              CHANNELS 6 Xposition Yposition Zposition Zrotation Xrotation Yrotation
              End Site
              {
                OFFSET 1.9685 0 0
              }
            }
            JOINT RightHandIndex1
            {
              OFFSET 3.46188 0.17528 0
              CHANNELS 6 Xposition Yposition Zposition Zrotation Xrotation Yrotation
              End Site
              {
                OFFSET 2.3622 0 0
              }
            }
          }
        }
      }
    }
  }
  JOINT LeftUpLeg
  {
    OFFSET -4.08853 0 0
    CHANNELS 6 Xposition Yposition Zposition Zrotation Xrotation Yrotation
    JOINT LeftLeg
    {
      OFFSET 0 0 -17.3605
      CHANNELS 6 Xposition Yposition Zposition Zrotation Xrotation Yrotation
      JOINT LeftFoot
      {
        OFFSET 0 0 -16.1351
        CHANNELS 6 Xposition Yposition Zposition Zrotation Xrotation Yrotation
        JOINT LeftToeBase
        {
          OFFSET 0 5.10779 -1.36863
          CHANNELS 6 Xposition Yposition Zposition Zrotation Xrotation Yrotation
          End Site
          {
            OFFSET 0 1.77165 0
          }
        }
      }
    }
  }
  JOINT RightUpLeg
  {
    OFFSET 4.08853 0 0
    CHANNELS 6 Xposition Yposition Zposition Zrotation Xrotation Yrotation
    JOINT RightLeg
    {
      OFFSET 0 0 -17.3605
      CHANNELS 6 Xposition Yposition Zposition Zrotation Xrotation Yrotation
      JOINT RightFoot
      {
        OFFSET 0 0 -16.1351
        CHANNELS 6 Xposition Yposition Zposition Zrotation Xrotation Yrotation
        JOINT RightToeBase
        {
          OFFSET 0 5.10779 -1.36863
          CHANNELS 6 Xposition Yposition Zposition Zrotation Xrotation Yrotation
          End Site
          {
            OFFSET 0 1.77165 0
          }
        }
      }
    }
  }
}
MOTION
Frames:	4
Frame Time:	0.0416667
-9.07551 21.1043 -14.0979 -17.2055 -56.8387 -21.0654 -1.77636e-015 0 9.09008 -8.35079 -43.6727 -4.29288 -1e-005 1.77636e-015 15.9751 13.8171 9.73544 -0.609067 -1e-005 0 12.5984 4.72011 -17.4919 22.4686 -7.874 -1.77636e-015 0 -28.0736 -6.22529 -72.6691 -12.9921 1e-005 0 -91.1422 12.9291 6.52657e-015 -10.3081 0 0 24.7894 21.1189 37.9595 -2.81979 -0.13815 0 -1.00974 -4.46382 -102.759 -4.14743 0.13815 7.10543e-015 0.180508 -3.13186 -86.6988 -1e-005 0 12.5984 -17.4746 -25.7439 -22.9315 7.874 -3.55271e-015 1e-005 46.3196 12.3074 52.7535 12.9921 -1e-005 1e-005 83.6204 25.0361 1.40415e-014 10.3081 3.55271e-015 1e-005 -9.96955 15.6593 -56.9265 2.94832 -0.17528 0 14.674 -33.8613 115.172 3.46188 0.17528 0 -25.6205 -31.6893 47.6076 -4.08853 0 3.55271e-015 5.81915 52.661 -1.18465 1e-005 3.55271e-015 -17.3605 -180 -77.7438 -180 1e-005 0 -16.1351 -1.54331 13.6251 4.5509 1.77636e-015 5.10779 -1.36863 -1.646e-015 6.39772 5.00076e-016 4.08853 0 3.55271e-015 -11.0263 50.2615 0.497743 1e-005 -3.55271e-015 -17.3605 -180 -81.4005 -180 1e-005 -3.55271e-015 -16.1351 -3.37101 19.7346 -2.76936 0 5.10779 -1.36863 -1.90601e-017 5.47695 1.99696e-016 
-9.04181 21.1198 -14.0787 -16.8412 -56.4693 -20.8409 1.77636e-015 0 9.09008 -8.19006 -43.4797 -4.10384 -1e-005 0 15.9751 13.5417 10.3465 -0.53685 -1e-005 0 12.5984 4.36193 -16.5422 22.0437 -7.874 -1.77636e-015 7.10543e-015 -27.7869 -6.9068 -73.1075 -12.9921 1e-005 0 -90.953 12.7484 1.30438e-014 -10.3081 0 0 25.1261 21.1361 37.555 -2.81979 -0.13815 0 -1.08705 -4.73532 -102.944 -4.14743 0.13815 0 0.196181 -3.49367 -86.7835 -1e-005 0 12.5984 -17.7762 -26.6237 -22.6842 7.874 -3.55271e-015 1e-005 46.2998 13.1232 52.0819 12.9921 -1e-005 1e-005 83.4628 24.5803 -0 10.3081 0 1e-005 -10.2822 15.9559 -56.5783 2.94832 -0.17528 1.77636e-015 15.3243 -34.3838 115.884 3.46188 0.17528 3.55271e-015 -26.3084 -32.3778 47.2866 -4.08853 0 0 5.67703 52.2418 -0.858984 1e-005 -3.55271e-015 -17.3605 -180 -77.798 -180 1e-005 0 -16.1351 -1.74713 13.6451 4.4892 0 5.10779 -1.36863 0 6.29341 -0 4.08853 0 0 -11.2105 49.7579 0.604608 1e-005 0 -17.3605 180 -81.517 -180 1e-005 0 -16.1351 -3.44025 19.7112 -2.67203 0 5.10779 -1.36863 6.43848e-015 5.55795 -7.98894e-016 
-9.04909 21.1234 -14.0544 -16.963 -56.3775 -20.9562 -1.77636e-015 0 9.09008 -7.74888 -42.9773 -3.74371 -1e-005 0 15.9751 13.2352 11.0674 -0.534075 -1e-005 -1.77636e-015 12.5984 4.69584 -17.1824 21.7371 -7.874 3.55271e-015 0 -27.7803 -6.12896 -72.5082 -12.9921 1e-005 0 -90.6785 12.5518 6.51686e-015 -10.3081 0 0 25.54 21.0605 36.945 -2.81979 -0.13815 0 -1.02024 -4.49176 -102.81 -4.14743 0.13815 0 0.203608 -3.36537 -86.5349 -1e-005 -1.77636e-015 12.5984 -17.8483 -26.7664 -22.5357 7.874 7.10543e-015 1e-005 46.2379 13.1624 51.9759 12.9921 -1e-005 1e-005 83.2405 24.463 -1.74712e-014 10.3081 0 1e-005 -10.4535 16.0555 -56.2923 2.94832 -0.17528 0 15.6966 -34.6987 116.274 3.46188 0.17528 0 -26.8867 -32.7132 46.8278 -4.08853 0 0 5.63778 52.2304 -0.796583 1e-005 -3.55271e-015 -17.3605 -180 -77.8366 -180 1e-005 0 -16.1351 -1.8733 13.5598 4.53097 -1.77636e-015 5.10779 -1.36863 1.62402e-015 6.45711 -3.00081e-016 4.08853 -3.55271e-015 0 -11.28 49.7752 0.625456 1e-005 -3.55271e-015 -17.3605 -180 -81.5698 -180 1e-005 3.55271e-015 -16.1351 -3.43192 19.5602 -2.48191 0 5.10779 -1.36863 3.18055e-015 5.57236 -0 
-9.0528 21.1231 -14.0476 -17.2741 -56.5525 -21.1819 0 -3.55271e-015 9.09008 -7.49345 -42.2133 -3.5336 -1e-005 1.77636e-015 15.9751 13.1561 12.0786 -0.667953 -1e-005 0 12.5984 4.59897 -17.0735 21.3966 -7.874 -1.77636e-015 0 -27.7728 -6.25099 -72.5149 -12.9921 1e-005 0 -90.3792 12.3007 -1.62764e-014 -10.3081 0 0 25.7717 21.0171 36.6061 -2.81979 -0.13815 0 -1.03046 -4.49394 -102.928 -4.14743 0.13815 0 0.203274 -3.47714 -86.6518 -1e-005 0 12.5984 -17.8373 -26.7864 -22.4228 7.874 0 1e-005 46.3017 13.0706 51.9829 12.9921 -1e-005 1e-005 82.9239 24.465 1.74715e-014 10.3081 0 1e-005 -10.6351 16.2188 -56.0867 2.94832 -0.17528 3.55271e-015 15.889 -34.9184 116.44 3.46188 0.17528 3.55271e-015 -26.9758 -32.7941 46.7791 -4.08853 -3.55271e-015 1.77636e-015 5.74386 52.4619 -0.891841 1e-005 3.55271e-015 -17.3605 -180 -77.8887 -180 1e-005 0 -16.1351 -1.86025 13.5033 4.55371 0 5.10779 -1.36863 3.21427e-015 6.45023 -3.00077e-016 4.08853 0 0 -11.2349 50.0344 0.581946 1e-005 0 -17.3605 -180 -81.6088 -180 1e-005 -3.55271e-015 -16.1351 -3.33251 19.5666 -2.29771 -1.77636e-015 5.10779 -1.36863 9.56117e-015 5.60557 -1.9974e-016 
